<?xml version="1.0" encoding="UTF-8" standalone="no"?>
<!-- Generator: Adobe Illustrator 19.0.1, SVG Export Plug-In . SVG Version: 6.00 Build 0)  -->

<svg
   xmlns:dc="http://purl.org/dc/elements/1.1/"
   xmlns:cc="http://creativecommons.org/ns#"
   xmlns:rdf="http://www.w3.org/1999/02/22-rdf-syntax-ns#"
   xmlns:svg="http://www.w3.org/2000/svg"
   xmlns="http://www.w3.org/2000/svg"
   xmlns:sodipodi="http://sodipodi.sourceforge.net/DTD/sodipodi-0.dtd"
   xmlns:inkscape="http://www.inkscape.org/namespaces/inkscape"
   version="1.1"
   x="0px"
   y="0px"
   viewBox="0 0 32 32"
   enable-background="new 0 0 32 32"
   xml:space="preserve"
   id="svg21"
   sodipodi:docname="instagram online social media photo by alfredocreates.svg"
   inkscape:version="0.92.3 (2405546, 2018-03-11)"><metadata
   id="metadata27"><rdf:RDF><cc:Work
       rdf:about=""><dc:format>image/svg+xml</dc:format><dc:type
         rdf:resource="http://purl.org/dc/dcmitype/StillImage" /></cc:Work></rdf:RDF></metadata><defs
   id="defs25" /><sodipodi:namedview
   pagecolor="#ffffff"
   bordercolor="#666666"
   borderopacity="1"
   objecttolerance="10"
   gridtolerance="10"
   guidetolerance="10"
   inkscape:pageopacity="0"
   inkscape:pageshadow="2"
   inkscape:window-width="1741"
   inkscape:window-height="961"
   id="namedview23"
   showgrid="false"
   inkscape:zoom="20.85965"
   inkscape:cx="10.945074"
   inkscape:cy="20.887519"
   inkscape:window-x="0"
   inkscape:window-y="0"
   inkscape:window-maximized="0"
   inkscape:current-layer="Flat_copy" />
<g
   id="Layer_6"
   display="none">
	<rect
   x="-160.667"
   y="-79.333"
   display="inline"
   fill="#E2E2E2"
   width="200"
   height="194.734"
   id="rect2" />
</g>
<g
   id="Flat"
   display="none">
	<g
   display="inline"
   id="g9">
		<path
   fill="#333333"
   d="M16,0C7.163,0,0,7.163,0,16c0,8.836,7.163,16,16,16s16-7.164,16-16C32,7.163,24.837,0,16,0z"
   id="path5" />
		<path
   fill="none"
   stroke="#FF6666"
   stroke-width="0.5"
   stroke-miterlimit="10"
   d="M16,1.359C7.914,1.359,1.359,7.914,1.359,16    c0,8.086,6.555,14.641,14.641,14.641S30.641,24.086,30.641,16C30.641,7.914,24.086,1.359,16,1.359z"
   id="path7" />
	</g>
	<path
   display="inline"
   fill="#FFFFFF"
   d="M22.057,7.93H9.943c-1.14,0-2.019,0.879-2.019,2.019v12.113   c0,1.14,0.879,2.019,2.019,2.019h12.113c1.14,0,2.019-0.879,2.019-2.019V9.949C24.076,8.808,23.196,7.93,22.057,7.93z    M16.012,12.833c1.791,0,3.243,1.407,3.243,3.142c0,1.735-1.452,3.142-3.243,3.142c-1.79,0-3.242-1.408-3.242-3.142   C12.77,14.239,14.222,12.833,16.012,12.833z M22.057,21.557c0,0.354-0.151,0.505-0.505,0.505H10.448   c-0.353,0-0.505-0.151-0.505-0.505v-7.066l1.258,0.274c-0.135,0.439-0.208,0.903-0.208,1.385c0,2.684,2.248,4.863,5.018,4.863   c2.772,0,5.019-2.178,5.019-4.863c0-0.482-0.073-0.946-0.208-1.385l1.234-0.274V21.557z M22.057,12.472   c0,0.279-0.226,0.505-0.505,0.505h-2.019c-0.279,0-0.505-0.226-0.505-0.505v-2.019c0-0.279,0.226-0.505,0.505-0.505h2.019   c0.279,0,0.505,0.226,0.505,0.505V12.472z"
   id="path11" />
</g>
<g
   id="Flat_copy">
	<g
   id="g16">
		<path
   d="M16,0C7.163,0,0,7.163,0,16c0,8.836,7.163,16,16,16s16-7.164,16-16C32,7.163,24.837,0,16,0z"
   id="path14"
   fill="#333333" />
	</g>
	
<path
   id="path3746"
   d="m 16.000002,6.7325503 c -2.517658,0 -2.831979,0.011584 -3.820507,0.055605 -0.986984,0.046337 -1.658874,0.201567 -2.2496732,0.4309365 C 9.3204868,7.4554116 8.8030541,7.7728218 8.2879383,8.2879377 7.7728224,8.8030535 7.4546399,9.319714 7.2190921,9.9298208 6.9897227,10.520622 6.8337206,11.192512 6.7881556,12.179496 c -0.046337,0.988528 -0.055605,1.302849 -0.055605,3.820507 0,2.517658 0.011584,2.831979 0.055605,3.820507 0.046337,0.986211 0.2015671,1.658874 0.4309365,2.249674 0.2363201,0.608563 0.5537303,1.126768 1.0688462,1.641883 0.5151158,0.514344 1.0317763,0.833299 1.6418835,1.068847 0.5915712,0.228597 1.2634622,0.385371 2.2496732,0.430936 0.988528,0.04634 1.302849,0.0556 3.820507,0.0556 2.517658,0 2.831979,-0.01159 3.820507,-0.0556 0.986211,-0.04634 1.658874,-0.202339 2.249674,-0.430936 0.608563,-0.23632 1.126768,-0.554503 1.641883,-1.068847 0.514344,-0.515115 0.833299,-1.031004 1.068847,-1.641883 0.228597,-0.5908 0.385371,-1.263463 0.430936,-2.249674 0.04634,-0.988528 0.0556,-1.302849 0.0556,-3.820507 0,-2.517658 -0.01159,-2.831979 -0.0556,-3.820507 C 25.165509,11.193285 25.00951,10.51985 24.780913,9.9298208 24.544593,9.3204863 24.22641,8.8030535 23.712066,8.2879377 23.196951,7.7728218 22.681062,7.4546393 22.070183,7.2190916 21.479383,6.9897221 20.80672,6.83372 19.820509,6.7881551 18.831981,6.7418178 18.51766,6.7325503 16.000002,6.7325503 Z m 0,1.6681414 c 2.473637,0 2.768651,0.012357 3.745595,0.054832 0.903577,0.042476 1.393979,0.1922996 1.719885,0.3204994 0.434025,0.1675864 0.741396,0.3683812 1.067301,0.6919697 0.323589,0.3243608 0.524384,0.6325042 0.69197,1.0665302 0.126655,0.325906 0.278023,0.816308 0.318955,1.719885 0.04402,0.977716 0.05406,1.271185 0.05406,3.745595 0,2.47441 -0.01158,2.768651 -0.05715,3.745595 -0.04711,0.903577 -0.197706,1.393979 -0.325134,1.719885 -0.172992,0.434025 -0.369925,0.741396 -0.694286,1.067301 -0.323589,0.323589 -0.636365,0.524384 -1.065757,0.69197 -0.324361,0.126655 -0.822486,0.278023 -1.726063,0.318955 -0.983894,0.04402 -1.273502,0.05406 -3.752546,0.05406 -2.479815,0 -2.769423,-0.01158 -3.752545,-0.05715 -0.904348,-0.04711 -1.402474,-0.197705 -1.726835,-0.325133 C 10.058022,23.042494 9.7560571,22.845561 9.4324685,22.5212 9.1073354,22.197611 8.8995901,21.884835 8.7374097,21.455443 8.6099822,21.131082 8.4601584,20.632957 8.4130489,19.72938 c -0.034753,-0.973082 -0.04711,-1.273502 -0.04711,-3.740961 0,-2.468232 0.012357,-2.769424 0.04711,-3.754091 0.047109,-0.903576 0.1969333,-1.40093 0.3243608,-1.72529 C 8.8995901,10.068833 9.1073354,9.7676408 9.4324685,9.4425077 9.7560571,9.1189192 10.058022,8.9104015 10.497452,8.7489934 c 0.324361,-0.1281998 0.811675,-0.2787958 1.715251,-0.3251331 0.984667,-0.034753 1.274275,-0.046337 3.752546,-0.046337 z m 0,2.8404743 c -2.629639,0 -4.758837,2.131514 -4.758837,4.758837 0,2.629639 2.131514,4.758836 4.758837,4.758836 2.629639,0 4.758836,-2.131513 4.758836,-4.758836 0,-2.629639 -2.131513,-4.758837 -4.758836,-4.758837 z m 0,7.847988 c -1.706756,0 -3.089151,-1.382395 -3.089151,-3.089151 0,-1.706756 1.382395,-3.089151 3.089151,-3.089151 1.706756,0 3.089151,1.382395 3.089151,3.089151 0,1.706756 -1.382395,3.089151 -3.089151,3.089151 z M 22.059371,11.0535 c 0,0.613969 -0.498898,1.112095 -1.112094,1.112095 -0.613969,0 -1.112095,-0.498898 -1.112095,-1.112095 0,-0.613196 0.498898,-1.1113222 1.112095,-1.1113222 0.612424,-7.72e-4 1.112094,0.4981262 1.112094,1.1113222 z"
   inkscape:connector-curvature="0"
   style="fill:#ffffff;stroke-width:0.77228767" /></g>
</svg>