<?xml version="1.0" encoding="UTF-8" standalone="no"?>
<svg
   xmlns:dc="http://purl.org/dc/elements/1.1/"
   xmlns:cc="http://creativecommons.org/ns#"
   xmlns:rdf="http://www.w3.org/1999/02/22-rdf-syntax-ns#"
   xmlns:svg="http://www.w3.org/2000/svg"
   xmlns="http://www.w3.org/2000/svg"
   xmlns:sodipodi="http://sodipodi.sourceforge.net/DTD/sodipodi-0.dtd"
   xmlns:inkscape="http://www.inkscape.org/namespaces/inkscape"
   width="270px"
   height="100px"
   viewBox="0 0 270 100"
   version="1.1"
   id="svg13"
   sodipodi:docname="button-logo-allcaps-one-button-white.svg"
   inkscape:version="0.92.3 (2405546, 2018-03-11)">
  <metadata
     id="metadata17">
    <rdf:RDF>
      <cc:Work
         rdf:about="">
        <dc:format>image/svg+xml</dc:format>
        <dc:type
           rdf:resource="http://purl.org/dc/dcmitype/StillImage" />
        <dc:title>button-logo3</dc:title>
      </cc:Work>
    </rdf:RDF>
  </metadata>
  <sodipodi:namedview
     pagecolor="#ffffff"
     bordercolor="#666666"
     borderopacity="1"
     objecttolerance="10"
     gridtolerance="10"
     guidetolerance="10"
     inkscape:pageopacity="0"
     inkscape:pageshadow="2"
     inkscape:window-width="1408"
     inkscape:window-height="754"
     id="namedview15"
     showgrid="false"
     inkscape:zoom="1.062963"
     inkscape:cx="135"
     inkscape:cy="87.630662"
     inkscape:window-x="273"
     inkscape:window-y="162"
     inkscape:window-maximized="0"
     inkscape:current-layer="svg13" />
  <!-- Generator: Sketch 51.1 (57501) - http://www.bohemiancoding.com/sketch -->
  <title
     id="title2">button-logo3</title>
  <desc
     id="desc4">Created with Sketch.</desc>
  <defs
     id="defs6" />
  <g
     id="button-logo3"
     stroke="none"
     stroke-width="1"
     fill="none"
     fill-rule="evenodd"
     style="fill:#ffffff">
    <g
       id="button"
       transform="translate(95.000000, 40.574219)"
       style="fill:#ffffff">
      <path
         d="M8.08949584,16.1789917 C3.62179065,16.1789917 0,12.557201 0,8.08949584 C0,3.62179065 3.62179065,0 8.08949584,0 C12.557201,0 16.1789917,3.62179065 16.1789917,8.08949584 C16.1789917,12.557201 12.557201,16.1789917 8.08949584,16.1789917 Z M6.11935835,7.42152714 C6.88959203,7.42152714 7.5139898,6.79712937 7.5139898,6.02689569 C7.5139898,5.256662 6.88959203,4.63226423 6.11935835,4.63226423 C5.34912467,4.63226423 4.7247269,5.256662 4.7247269,6.02689569 C4.7247269,6.79712937 5.34912467,7.42152714 6.11935835,7.42152714 Z M10.0694225,7.42152714 C10.8396562,7.42152714 11.464054,6.79712937 11.464054,6.02689569 C11.464054,5.256662 10.8396562,4.63226423 10.0694225,4.63226423 C9.29918885,4.63226423 8.67479108,5.256662 8.67479108,6.02689569 C8.67479108,6.79712937 9.29918885,7.42152714 10.0694225,7.42152714 Z M6.11935835,11.6333495 C6.88959203,11.6333495 7.5139898,11.0089517 7.5139898,10.238718 C7.5139898,9.46848436 6.88959203,8.84408659 6.11935835,8.84408659 C5.34912467,8.84408659 4.7247269,9.46848436 4.7247269,10.238718 C4.7247269,11.0089517 5.34912467,11.6333495 6.11935835,11.6333495 Z M10.0694225,11.6333495 C10.8396562,11.6333495 11.464054,11.0089517 11.464054,10.238718 C11.464054,9.46848436 10.8396562,8.84408659 10.0694225,8.84408659 C9.29918885,8.84408659 8.67479108,9.46848436 8.67479108,10.238718 C8.67479108,11.0089517 9.29918885,11.6333495 10.0694225,11.6333495 Z"
         id="Combined-Shape"
         fill="#FFFFFF"
         style="fill:#ffffff" />
      <g
         id="Group-14"
         transform="translate(4.635802, 4.467329)"
         style="fill:#ffffff" />
    </g>
    <path
       d="M25.0782495,57 C24.9249154,57 24.7945834,56.9463339 24.6872495,56.839 C24.5799156,56.7316661 24.5262495,56.6013341 24.5262495,56.448 L24.5262495,41.475 C24.5262495,41.3063325 24.5760823,41.1683339 24.6757495,41.061 C24.7754167,40.9536661 24.909582,40.9 25.0782495,40.9 L31.7482495,40.9 C33.5422585,40.9 34.8839117,41.2948294 35.7732495,42.0845 C36.6625873,42.8741706 37.1072495,43.9513265 37.1072495,45.316 C37.1072495,46.1133373 36.9117515,46.7918305 36.5207495,47.3515 C36.1297475,47.9111695 35.6735854,48.3136654 35.1522495,48.559 C35.7962527,48.8503348 36.3405806,49.3256634 36.7852495,49.985 C37.2299184,50.6443366 37.4522495,51.3956625 37.4522495,52.239 C37.4522495,53.6650071 36.9692543,54.8149956 36.0032495,55.689 C35.0372447,56.5630044 33.6879248,57 31.9552495,57 L25.0782495,57 Z M31.3342495,47.501 C32.1162534,47.501 32.7180807,47.3093353 33.1397495,46.926 C33.5614183,46.5426648 33.7722495,46.0290032 33.7722495,45.385 C33.7722495,44.7409968 33.5652516,44.2426684 33.1512495,43.89 C32.7372474,43.5373316 32.1315868,43.361 31.3342495,43.361 L27.7692495,43.361 L27.7692495,47.501 L31.3342495,47.501 Z M31.5642495,54.539 C32.3615868,54.539 32.9825806,54.3205022 33.4272495,53.8835 C33.8719184,53.4464978 34.0942495,52.89067 34.0942495,52.216 C34.0942495,51.54133 33.8680851,50.9855022 33.4157495,50.5485 C32.9634139,50.1114978 32.3462534,49.893 31.5642495,49.893 L27.7692495,49.893 L27.7692495,54.539 L31.5642495,54.539 Z M49.6872496,57.23 C47.6019058,57.23 45.9842553,56.7010053 44.8342496,55.643 C43.6842438,54.5849947 43.1092496,52.9826774 43.1092496,50.836 L43.1092496,41.475 C43.1092496,41.3063325 43.1590824,41.1683339 43.2587496,41.061 C43.3584167,40.9536661 43.4925821,40.9 43.6612496,40.9 L45.7772496,40.9 C45.9459171,40.9 46.0839157,40.9536661 46.1912496,41.061 C46.2985835,41.1683339 46.3522496,41.3063325 46.3522496,41.475 L46.3522496,50.836 C46.3522496,52.0473394 46.6397467,52.9596636 47.2147496,53.573 C47.7897525,54.1863364 48.6062443,54.493 49.6642496,54.493 C50.7222549,54.493 51.5387467,54.1863364 52.1137496,53.573 C52.6887525,52.9596636 52.9762496,52.0473394 52.9762496,50.836 L52.9762496,41.475 C52.9762496,41.3063325 53.0299157,41.1683339 53.1372496,41.061 C53.2445835,40.9536661 53.3825821,40.9 53.5512496,40.9 L55.6672496,40.9 C55.8359171,40.9 55.9700824,40.9536661 56.0697496,41.061 C56.1694167,41.1683339 56.2192496,41.3063325 56.2192496,41.475 L56.2192496,50.836 C56.2192496,52.9826774 55.6480886,54.5849947 54.5057496,55.643 C53.3634105,56.7010053 51.7572599,57.23 49.6872496,57.23 Z M66.6832497,57 C66.5299156,57 66.3995835,56.9463339 66.2922497,56.839 C66.1849158,56.7316661 66.1312497,56.6013341 66.1312497,56.448 L66.1312497,43.775 L61.8762497,43.775 C61.7229156,43.775 61.5925835,43.7213339 61.4852497,43.614 C61.3779158,43.5066661 61.3242497,43.3686675 61.3242497,43.2 L61.3242497,41.475 C61.3242497,41.3063325 61.3740825,41.1683339 61.4737497,41.061 C61.5734168,40.9536661 61.7075821,40.9 61.8762497,40.9 L73.6292497,40.9 C73.7979172,40.9 73.9359158,40.9536661 74.0432497,41.061 C74.1505835,41.1683339 74.2042497,41.3063325 74.2042497,41.475 L74.2042497,43.2 C74.2042497,43.3686675 74.1505835,43.5066661 74.0432497,43.614 C73.9359158,43.7213339 73.7979172,43.775 73.6292497,43.775 L69.3972497,43.775 L69.3972497,56.448 C69.3972497,56.6013341 69.3474168,56.7316661 69.2477497,56.839 C69.1480825,56.9463339 69.0139172,57 68.8452497,57 L66.6832497,57 Z M83.5412497,57 C83.3879156,57 83.2575836,56.9463339 83.1502497,56.839 C83.0429159,56.7316661 82.9892497,56.6013341 82.9892497,56.448 L82.9892497,43.775 L78.7342497,43.775 C78.5809156,43.775 78.4505836,43.7213339 78.3432497,43.614 C78.2359159,43.5066661 78.1822497,43.3686675 78.1822497,43.2 L78.1822497,41.475 C78.1822497,41.3063325 78.2320826,41.1683339 78.3317497,41.061 C78.4314169,40.9536661 78.5655822,40.9 78.7342497,40.9 L90.4872497,40.9 C90.6559172,40.9 90.7939159,40.9536661 90.9012497,41.061 C91.0085836,41.1683339 91.0622497,41.3063325 91.0622497,41.475 L91.0622497,43.2 C91.0622497,43.3686675 91.0085836,43.5066661 90.9012497,43.614 C90.7939159,43.7213339 90.6559172,43.775 90.4872497,43.775 L86.2552497,43.775 L86.2552497,56.448 C86.2552497,56.6013341 86.2054169,56.7316661 86.1057497,56.839 C86.0060826,56.9463339 85.8719172,57 85.7032497,57 L83.5412497,57 Z M117.87725,57 C117.723916,57 117.593584,56.9463339 117.48625,56.839 C117.378916,56.7316661 117.32525,56.6013341 117.32525,56.448 L117.32525,41.475 C117.32525,41.3063325 117.375083,41.1683339 117.47475,41.061 C117.574417,40.9536661 117.708582,40.9 117.87725,40.9 L119.67125,40.9 C119.962585,40.9 120.184916,41.030332 120.33825,41.291 L126.91625,51.503 L126.91625,41.475 C126.91625,41.3063325 126.966083,41.1683339 127.06575,41.061 C127.165417,40.9536661 127.299582,40.9 127.46825,40.9 L129.44625,40.9 C129.614917,40.9 129.752916,40.9536661 129.86025,41.061 C129.967584,41.1683339 130.02125,41.3063325 130.02125,41.475 L130.02125,56.425 C130.02125,56.5936675 129.967584,56.7316661 129.86025,56.839 C129.752916,56.9463339 129.622584,57 129.46925,57 L127.65225,57 C127.345582,57 127.115584,56.869668 126.96225,56.609 L120.40725,46.627 L120.40725,56.448 C120.40725,56.6013341 120.357417,56.7316661 120.25775,56.839 C120.158083,56.9463339 120.023917,57 119.85525,57 L117.87725,57 Z M145.22225,57 C145.068916,57 144.938584,56.9463339 144.83125,56.839 C144.723916,56.7316661 144.67025,56.6013341 144.67025,56.448 L144.67025,41.475 C144.67025,41.3063325 144.720083,41.1683339 144.81975,41.061 C144.919417,40.9536661 145.053583,40.9 145.22225,40.9 L151.38625,40.9 C153.241593,40.9 154.698245,41.3369956 155.75625,42.211 C156.814255,43.0850044 157.34325,44.3576583 157.34325,46.029 C157.34325,47.6850083 156.814255,48.9384957 155.75625,49.7895 C154.698245,50.6405043 153.241593,51.066 151.38625,51.066 L148.00525,51.066 L148.00525,56.448 C148.00525,56.6166675 147.951584,56.7508328 147.84425,56.8505 C147.736916,56.9501672 147.598918,57 147.43025,57 L145.22225,57 Z M151.27125,48.49 C152.160588,48.49 152.839081,48.2791688 153.30675,47.8575 C153.774419,47.4358312 154.00825,46.8186707 154.00825,46.006 C154.00825,45.2086627 153.782086,44.5876689 153.32975,44.143 C152.877415,43.6983311 152.191255,43.476 151.27125,43.476 L147.95925,43.476 L147.95925,48.49 L151.27125,48.49 Z M168.98025,57.23 C166.879573,57.23 165.246589,56.7010053 164.08125,55.643 C162.915911,54.5849947 162.302584,53.0133438 162.24125,50.928 C162.225917,50.4833311 162.21825,49.831671 162.21825,48.973 C162.21825,48.0989956 162.225917,47.4396689 162.24125,46.995 C162.302584,44.9556565 162.931244,43.3916721 164.12725,42.303 C165.323256,41.2143279 166.940907,40.67 168.98025,40.67 C171.00426,40.67 172.618078,41.2143279 173.82175,42.303 C175.025423,43.3916721 175.657917,44.9556565 175.71925,46.995 C175.749917,47.8843378 175.76525,48.5436645 175.76525,48.973 C175.76525,49.3870021 175.749917,50.0386622 175.71925,50.928 C175.657917,53.0133438 175.040756,54.5849947 173.86775,55.643 C172.694744,56.7010053 171.065594,57.23 168.98025,57.23 Z M168.98025,54.562 C170.007589,54.562 170.820247,54.2553364 171.41825,53.642 C172.016253,53.0286636 172.33825,52.085673 172.38425,50.813 C172.414917,49.8929954 172.43025,49.2720016 172.43025,48.95 C172.43025,48.5973316 172.414917,47.9763378 172.38425,47.087 C172.33825,45.8296604 172.008587,44.8905031 171.39525,44.2695 C170.781914,43.6484969 169.976922,43.338 168.98025,43.338 C167.968245,43.338 167.155587,43.6484969 166.54225,44.2695 C165.928914,44.8905031 165.606917,45.8296604 165.57625,47.087 C165.560917,47.5316689 165.55325,48.1526627 165.55325,48.95 C165.55325,49.7320039 165.560917,50.3529977 165.57625,50.813 C165.606917,52.0703396 165.92508,53.0094969 166.53075,53.6305 C167.13642,54.2515031 167.952912,54.562 168.98025,54.562 Z M182.22725,57 C182.073916,57 181.943584,56.9463339 181.83625,56.839 C181.728916,56.7316661 181.67525,56.6013341 181.67525,56.448 L181.67525,41.475 C181.67525,41.3063325 181.725083,41.1683339 181.82475,41.061 C181.924417,40.9536661 182.058583,40.9 182.22725,40.9 L192.37025,40.9 C192.538918,40.9 192.676916,40.9536661 192.78425,41.061 C192.891584,41.1683339 192.94525,41.3063325 192.94525,41.475 L192.94525,43.016 C192.94525,43.1846675 192.891584,43.3188328 192.78425,43.4185 C192.676916,43.5181672 192.538918,43.568 192.37025,43.568 L184.82625,43.568 L184.82625,47.593 L191.86425,47.593 C192.032918,47.593 192.170916,47.6466661 192.27825,47.754 C192.385584,47.8613339 192.43925,47.9993325 192.43925,48.168 L192.43925,49.617 C192.43925,49.7856675 192.385584,49.9198328 192.27825,50.0195 C192.170916,50.1191672 192.032918,50.169 191.86425,50.169 L184.82625,50.169 L184.82625,54.332 L192.55425,54.332 C192.722918,54.332 192.860916,54.3818328 192.96825,54.4815 C193.075584,54.5811672 193.12925,54.7153325 193.12925,54.884 L193.12925,56.448 C193.12925,56.6166675 193.075584,56.7508328 192.96825,56.8505 C192.860916,56.9501672 192.722918,57 192.55425,57 L182.22725,57 Z M203.01825,57 C202.864916,57 202.734584,56.9463339 202.62725,56.839 C202.519916,56.7316661 202.46625,56.6013341 202.46625,56.448 L202.46625,43.775 L198.21125,43.775 C198.057916,43.775 197.927584,43.7213339 197.82025,43.614 C197.712916,43.5066661 197.65925,43.3686675 197.65925,43.2 L197.65925,41.475 C197.65925,41.3063325 197.709083,41.1683339 197.80875,41.061 C197.908418,40.9536661 198.042583,40.9 198.21125,40.9 L209.96425,40.9 C210.132918,40.9 210.270916,40.9536661 210.37825,41.061 C210.485584,41.1683339 210.53925,41.3063325 210.53925,41.475 L210.53925,43.2 C210.53925,43.3686675 210.485584,43.5066661 210.37825,43.614 C210.270916,43.7213339 210.132918,43.775 209.96425,43.775 L205.73225,43.775 L205.73225,56.448 C205.73225,56.6013341 205.682418,56.7316661 205.58275,56.839 C205.483083,56.9463339 205.348918,57 205.18025,57 L203.01825,57 Z M216.33425,57 C216.180916,57 216.050584,56.9463339 215.94325,56.839 C215.835917,56.7316661 215.78225,56.6013341 215.78225,56.448 L215.78225,41.475 C215.78225,41.3063325 215.832083,41.1683339 215.93175,41.061 C216.031418,40.9536661 216.165583,40.9 216.33425,40.9 L222.29125,40.9 C224.17726,40.9 225.653078,41.3369956 226.71875,42.211 C227.784422,43.0850044 228.31725,44.326992 228.31725,45.937 C228.31725,47.0563389 228.04892,47.9954962 227.51225,48.7545 C226.975581,49.5135038 226.224255,50.061665 225.25825,50.399 L228.59325,56.264 C228.639251,56.3560005 228.66225,56.4403329 228.66225,56.517 C228.66225,56.6550007 228.612418,56.7699995 228.51275,56.862 C228.413083,56.9540005 228.301918,57 228.17925,57 L226.06325,57 C225.817916,57 225.626251,56.9425006 225.48825,56.8275 C225.35025,56.7124994 225.227584,56.5630009 225.12025,56.379 L222.17625,50.928 L219.02525,50.928 L219.02525,56.448 C219.02525,56.6013341 218.971584,56.7316661 218.86425,56.839 C218.756917,56.9463339 218.618918,57 218.45025,57 L216.33425,57 Z M222.22225,48.306 C223.142255,48.306 223.832248,48.1028354 224.29225,47.6965 C224.752253,47.2901646 224.98225,46.6960039 224.98225,45.914 C224.98225,45.1319961 224.752253,44.5301688 224.29225,44.1085 C223.832248,43.6868312 223.142255,43.476 222.22225,43.476 L219.02525,43.476 L219.02525,48.306 L222.22225,48.306 Z M238.98825,57 C238.834916,57 238.704584,56.9463339 238.59725,56.839 C238.489917,56.7316661 238.43625,56.6013341 238.43625,56.448 L238.43625,51.273 L232.98525,41.636 C232.93925,41.4979993 232.91625,41.4136668 232.91625,41.383 C232.91625,41.2449993 232.966083,41.1300005 233.06575,41.038 C233.165418,40.9459995 233.276583,40.9 233.39925,40.9 L235.46925,40.9 C235.760585,40.9 235.99825,41.0456652 236.18225,41.337 L240.04625,48.007 L243.93325,41.337 C243.994584,41.2296661 244.08275,41.1300005 244.19775,41.038 C244.312751,40.9459995 244.454583,40.9 244.62325,40.9 L246.69325,40.9 C246.831251,40.9 246.94625,40.9459995 247.03825,41.038 C247.130251,41.1300005 247.17625,41.2449993 247.17625,41.383 C247.17625,41.4750005 247.153251,41.5593329 247.10725,41.636 L241.67925,51.273 L241.67925,56.448 C241.67925,56.6166675 241.625584,56.7508328 241.51825,56.8505 C241.410917,56.9501672 241.272918,57 241.10425,57 L238.98825,57 Z"
       id="Logo"
       fill="#FFFFFF"
       style="fill:#ffffff" />
  </g>
</svg>
